<?xml version="1.0" standalone="no"?>
<!DOCTYPE svg PUBLIC "-//W3C//DTD SVG 20010904//EN"
 "http://www.w3.org/TR/2001/REC-SVG-20010904/DTD/svg10.dtd">
<svg version="1.0" xmlns="http://www.w3.org/2000/svg"
 width="326.000000pt" height="292.000000pt" viewBox="0 0 326.000000 292.000000"
 preserveAspectRatio="xMidYMid meet">

<g transform="translate(0.000000,292.000000) scale(0.100000,-0.100000)"
fill="#888888" stroke="none">
<path d="M2633 2845 c-30 -21 -30 -65 1 -113 33 -51 38 -75 23 -96 -20 -27
-54 -5 -77 48 -10 24 -27 45 -37 48 -49 13 -96 -39 -73 -81 6 -13 41 -36 77
-52 48 -22 64 -33 61 -46 -4 -24 -49 -28 -86 -9 -40 21 -76 3 -80 -42 -4 -44
29 -60 90 -42 109 30 128 22 148 -61 19 -79 -6 -175 -52 -200 -29 -16 -100 -6
-136 19 -19 14 -58 77 -118 189 -53 101 -105 186 -131 214 -54 58 -157 113
-260 140 -150 39 -432 34 -505 -9 -78 -46 -54 -177 68 -387 86 -146 189 -223
348 -260 89 -20 130 -46 162 -102 36 -61 37 -132 3 -199 -72 -141 -281 -165
-371 -43 -26 34 -16 71 27 100 35 25 65 67 65 93 0 8 -12 23 -26 32 -24 16
-27 16 -52 -3 -19 -14 -28 -31 -30 -56 -3 -37 -35 -72 -55 -60 -5 3 -7 37 -3
83 6 64 4 80 -9 94 -22 22 -61 20 -85 -4 -26 -26 -25 -41 5 -86 33 -49 33 -84
1 -84 -27 0 -41 14 -76 79 -28 52 -52 61 -100 36 -26 -14 -31 -21 -28 -48 3
-29 10 -36 73 -67 108 -54 97 -90 -21 -69 -55 10 -68 9 -89 -5 -29 -19 -32
-47 -9 -70 20 -21 33 -20 92 3 50 20 92 18 92 -3 0 -16 -22 -46 -65 -89 -19
-19 -35 -39 -35 -44 0 -21 29 -45 54 -45 34 0 64 26 87 78 39 86 65 83 177
-19 44 -41 97 -82 118 -92 79 -37 157 -30 238 22 34 22 38 23 32 7 -21 -52
-56 -215 -64 -295 -5 -49 -12 -92 -15 -95 -3 -3 -28 9 -56 26 -116 71 -176 50
-317 -111 -53 -60 -101 -109 -108 -109 -25 0 -51 41 -51 80 0 47 24 76 71 84
52 10 75 74 34 96 -31 17 -57 4 -90 -46 -35 -50 -60 -67 -80 -54 -18 11 -18
75 0 118 18 41 5 66 -37 70 -47 5 -59 -18 -45 -87 14 -69 15 -98 3 -105 -17
-11 -38 5 -61 47 -47 85 -81 104 -128 71 -26 -18 -30 -65 -7 -87 8 -9 37 -23
65 -32 50 -17 76 -44 66 -71 -8 -20 -40 -17 -86 6 -47 24 -73 25 -94 4 -19
-18 -21 -65 -4 -82 15 -15 62 -15 128 -1 59 13 83 2 64 -28 -10 -16 -30 -25
-86 -37 -36 -8 -48 -49 -23 -76 35 -38 59 -25 155 87 11 13 26 23 35 23 9 0
45 -31 82 -70 43 -45 74 -70 89 -70 12 0 65 29 117 64 119 80 180 96 257 71
53 -18 105 -67 116 -111 30 -118 -208 -321 -456 -390 -50 -14 -102 -18 -225
-19 -137 0 -171 4 -240 23 -350 101 -653 388 -778 737 -75 211 -91 459 -43
676 55 254 167 461 346 640 147 147 300 241 497 304 48 15 95 30 103 33 12 4
12 6 -3 9 -56 14 -332 -105 -490 -211 -306 -204 -516 -514 -594 -876 -25 -119
-26 -439 0 -557 58 -272 187 -513 376 -703 121 -121 205 -184 351 -259 224
-116 392 -155 650 -155 246 0 414 39 624 145 180 90 288 181 463 387 104 121
134 149 153 137 23 -14 6 -55 -50 -125 -65 -81 -90 -126 -90 -159 0 -26 45
-55 120 -77 30 -9 61 -21 68 -26 20 -17 14 -45 -17 -80 -65 -75 -74 -130 -24
-149 19 -7 32 -6 51 7 21 14 24 21 19 58 -4 30 -2 49 9 65 23 32 41 11 50 -55
11 -92 66 -132 114 -84 30 30 24 55 -25 104 -49 48 -52 76 -8 76 16 0 40 -15
67 -44 24 -24 53 -47 66 -51 30 -9 74 23 78 58 5 40 -27 64 -96 72 -33 4 -69
13 -79 21 -17 13 -17 15 1 29 11 8 36 15 55 15 65 0 110 18 117 47 16 62 -41
81 -101 33 -46 -37 -84 -48 -95 -29 -9 14 11 72 34 99 36 41 17 90 -35 90 -36
0 -64 -40 -74 -106 -8 -54 -26 -65 -80 -50 -66 19 -60 40 48 154 100 106 137
166 137 224 0 68 -50 103 -184 133 -20 4 -27 11 -23 23 105 370 99 581 -23
827 -27 55 -60 117 -72 139 -17 29 -20 40 -10 43 36 14 100 73 120 113 28 56
29 129 2 250 -14 65 -17 96 -10 115 11 28 12 28 90 25 92 -3 129 21 116 74 -8
34 -29 38 -96 19 -103 -28 -122 9 -40 78 51 43 62 73 38 97 -17 17 -53 15 -69
-4 -8 -9 -27 -44 -44 -78 -44 -90 -61 -83 -57 25 3 91 -1 102 -48 114 -16 3
-34 0 -47 -10z"/>
</g>
</svg>
